HIERARCHY
ROOT Hips
{
  OFFSET -22.382 25.479 -313.935
  CHANNELS 6 Xposition Yposition Zposition Zrotation Xrotation Yrotation
  JOINT LeftUpLeg
  {
    OFFSET 7.582 -7.632 1.629
    CHANNELS 6 Xposition Yposition Zposition Zrotation Xrotation Yrotation
    JOINT LeftLeg
    {
      OFFSET -0.000 -53.916 0.000
      CHANNELS 6 Xposition Yposition Zposition Zrotation Xrotation Yrotation
      JOINT LeftFoot
      {
        OFFSET -0.000 -44.367 -0.000
        CHANNELS 6 Xposition Yposition Zposition Zrotation Xrotation Yrotation
        End Site
        {
          OFFSET 0.000 -9.279 5.357
        }
      }
    }
  }
  JOINT RightUpLeg
  {
    OFFSET -7.685 -7.705 1.448
    CHANNELS 6 Xposition Yposition Zposition Zrotation Xrotation Yrotation
    JOINT RightLeg
    {
      OFFSET -0.000 -54.825 0.000
      CHANNELS 6 Xposition Yposition Zposition Zrotation Xrotation Yrotation
      JOINT RightFoot
      {
        OFFSET -0.000 -44.668 -0.000
        CHANNELS 6 Xposition Yposition Zposition Zrotation Xrotation Yrotation
        End Site
        {
          OFFSET 0.000 -8.930 5.156
        }
      }
    }
  }
  JOINT Spine
  {
    OFFSET 0.000 5.979 -5.979
    CHANNELS 6 Xposition Yposition Zposition Zrotation Xrotation Yrotation
    JOINT LeftShoulder
    {
      OFFSET -0.000 32.715 0.000
      CHANNELS 6 Xposition Yposition Zposition Zrotation Xrotation Yrotation
      JOINT LeftArm
      {
        OFFSET 17.503 0.000 -0.000
        CHANNELS 6 Xposition Yposition Zposition Zrotation Xrotation Yrotation
        JOINT LeftForeArm
        {
          OFFSET 26.618 0.000 0.000
          CHANNELS 6 Xposition Yposition Zposition Zrotation Xrotation Yrotation
          JOINT LeftHand
          {
            OFFSET 26.643 0.000 -0.000
            CHANNELS 6 Xposition Yposition Zposition Zrotation Xrotation Yrotation
            JOINT LeftHandThumb1
            {
            OFFSET 4.970 -0.620 3.390
            CHANNELS 6 Xposition Yposition Zposition Zrotation Xrotation Yrotation
              JOINT LeftHandThumb2
              {
              OFFSET 2.150 -0.000 0.000
              CHANNELS 6 Xposition Yposition Zposition Zrotation Xrotation Yrotation
                JOINT LeftHandThumb3
                {
                OFFSET 2.200 -0.000 0.000
                CHANNELS 6 Xposition Yposition Zposition Zrotation Xrotation Yrotation
                  JOINT LeftHandThumb4
                  {
                  OFFSET 1.700 -0.000 0.000
                  CHANNELS 6 Xposition Yposition Zposition Zrotation Xrotation Yrotation
                  }
                }
              }
            }
            JOINT LeftHandIndex1
            {
            OFFSET 8.730 0.680 2.070
            CHANNELS 6 Xposition Yposition Zposition Zrotation Xrotation Yrotation
              JOINT LeftHandIndex2
              {
              OFFSET 2.670 -0.000 0.000
              CHANNELS 6 Xposition Yposition Zposition Zrotation Xrotation Yrotation
                JOINT LeftHandIndex3
                {
                OFFSET 2.130 -0.000 0.000
                CHANNELS 6 Xposition Yposition Zposition Zrotation Xrotation Yrotation
                  JOINT LeftHandIndex4
                  {
                  OFFSET 1.800 -0.000 0.000
                  CHANNELS 6 Xposition Yposition Zposition Zrotation Xrotation Yrotation
                  }
                }
              }
            }
            JOINT LeftHandMiddle1
            {
            OFFSET 9.220 0.670 0.550
            CHANNELS 6 Xposition Yposition Zposition Zrotation Xrotation Yrotation
              JOINT LeftHandMiddle2
              {
              OFFSET 2.660 -0.000 0.000
              CHANNELS 6 Xposition Yposition Zposition Zrotation Xrotation Yrotation
                JOINT LeftHandMiddle3
                {
                OFFSET 2.280 -0.000 0.000
                CHANNELS 6 Xposition Yposition Zposition Zrotation Xrotation Yrotation
                  JOINT LeftHandMiddle4
                  {
                  OFFSET 1.500 -0.000 0.000
                  CHANNELS 6 Xposition Yposition Zposition Zrotation Xrotation Yrotation
                  }
                }
              }
            }
            JOINT LeftHandRing1
            {
            OFFSET 9.250 0.670 -1.130
            CHANNELS 6 Xposition Yposition Zposition Zrotation Xrotation Yrotation
              JOINT LeftHandRing2
              {
              OFFSET 2.470 -0.000 0.000
              CHANNELS 6 Xposition Yposition Zposition Zrotation Xrotation Yrotation
                JOINT LeftHandRing3
                {
                OFFSET 2.210 -0.000 0.000
                CHANNELS 6 Xposition Yposition Zposition Zrotation Xrotation Yrotation
                  JOINT LeftHandRing4
                  {
                  OFFSET 1.800 -0.000 0.000
                  CHANNELS 6 Xposition Yposition Zposition Zrotation Xrotation Yrotation
                  }
                }
              }
            }
            JOINT LeftHandPinky1
            {
            OFFSET 9.350 0.660 -2.720
            CHANNELS 6 Xposition Yposition Zposition Zrotation Xrotation Yrotation
              JOINT LeftHandPinky2
              {
              OFFSET 1.630 -0.000 0.000
              CHANNELS 6 Xposition Yposition Zposition Zrotation Xrotation Yrotation
                JOINT LeftHandPinky3
                {
                OFFSET 1.710 -0.000 0.000
                CHANNELS 6 Xposition Yposition Zposition Zrotation Xrotation Yrotation
                  JOINT LeftHandPinky4
                  {
                  OFFSET 1.800 -0.000 0.000
                  CHANNELS 6 Xposition Yposition Zposition Zrotation Xrotation Yrotation
                  }
                }
              }
            }
          }
        }
      }
    }
    JOINT RightShoulder
    {
      OFFSET -0.000 32.715 0.000
      CHANNELS 6 Xposition Yposition Zposition Zrotation Xrotation Yrotation
      JOINT RightArm
      {
        OFFSET -19.056 0.000 -0.000
        CHANNELS 6 Xposition Yposition Zposition Zrotation Xrotation Yrotation
        JOINT RightForeArm
        {
          OFFSET -26.550 0.000 0.000
          CHANNELS 6 Xposition Yposition Zposition Zrotation Xrotation Yrotation
          JOINT RightHand
          {
            OFFSET -26.325 -0.000 -0.000
            CHANNELS 6 Xposition Yposition Zposition Zrotation Xrotation Yrotation
            JOINT RightHandThumb1
            {
            OFFSET -4.970 -0.620 3.390
            CHANNELS 6 Xposition Yposition Zposition Zrotation Xrotation Yrotation
              JOINT RightHandThumb2
              {
              OFFSET -2.150 0.000 0.000
              CHANNELS 6 Xposition Yposition Zposition Zrotation Xrotation Yrotation
                JOINT RightHandThumb3
                {
                OFFSET -2.200 0.000 0.000
                CHANNELS 6 Xposition Yposition Zposition Zrotation Xrotation Yrotation
                  JOINT RightHandThumb4
                  {
                  OFFSET -1.700 0.000 0.000
                  CHANNELS 6 Xposition Yposition Zposition Zrotation Xrotation Yrotation
                  }
                }
              }
            }
            JOINT RightHandIndex1
            {
            OFFSET -8.730 0.680 2.070
            CHANNELS 6 Xposition Yposition Zposition Zrotation Xrotation Yrotation
              JOINT RightHandIndex2
              {
              OFFSET -2.670 0.000 0.000
              CHANNELS 6 Xposition Yposition Zposition Zrotation Xrotation Yrotation
                JOINT RightHandIndex3
                {
                OFFSET -2.130 0.000 0.000
                CHANNELS 6 Xposition Yposition Zposition Zrotation Xrotation Yrotation
                  JOINT RightHandIndex4
                  {
                  OFFSET -1.800 0.000 0.000
                  CHANNELS 6 Xposition Yposition Zposition Zrotation Xrotation Yrotation
                  }
                }
              }
            }
            JOINT RightHandMiddle1
            {
            OFFSET -9.220 0.670 0.550
            CHANNELS 6 Xposition Yposition Zposition Zrotation Xrotation Yrotation
              JOINT RightHandMiddle2
              {
              OFFSET -2.660 0.000 0.000
              CHANNELS 6 Xposition Yposition Zposition Zrotation Xrotation Yrotation
                JOINT RightHandMiddle3
                {
                OFFSET -2.280 0.000 0.000
                CHANNELS 6 Xposition Yposition Zposition Zrotation Xrotation Yrotation
                  JOINT RightHandMiddle4
                  {
                  OFFSET -1.500 0.000 0.000
                  CHANNELS 6 Xposition Yposition Zposition Zrotation Xrotation Yrotation
                  }
                }
              }
            }
            JOINT RightHandRing1
            {
            OFFSET -9.250 0.670 -1.130
            CHANNELS 6 Xposition Yposition Zposition Zrotation Xrotation Yrotation
              JOINT RightHandRing2
              {
              OFFSET -2.470 0.000 0.000
              CHANNELS 6 Xposition Yposition Zposition Zrotation Xrotation Yrotation
                JOINT RightHandRing3
                {
                OFFSET -2.210 0.000 0.000
                CHANNELS 6 Xposition Yposition Zposition Zrotation Xrotation Yrotation
                  JOINT RightHandRing4
                  {
                  OFFSET -1.800 0.000 0.000
                  CHANNELS 6 Xposition Yposition Zposition Zrotation Xrotation Yrotation
                  }
                }
              }
            }
            JOINT RightHandPinky1
            {
            OFFSET -9.350 0.660 -2.720
            CHANNELS 6 Xposition Yposition Zposition Zrotation Xrotation Yrotation
              JOINT RightHandPinky2
              {
              OFFSET -1.630 0.000 0.000
              CHANNELS 6 Xposition Yposition Zposition Zrotation Xrotation Yrotation
                JOINT RightHandPinky3
                {
                OFFSET -1.710 0.000 0.000
                CHANNELS 6 Xposition Yposition Zposition Zrotation Xrotation Yrotation
                  JOINT RightHandPinky4
                  {
                  OFFSET -1.800 0.000 0.000
                  CHANNELS 6 Xposition Yposition Zposition Zrotation Xrotation Yrotation
                  }
                }
              }
            }
          }
        }
      }
    }
    JOINT Neck
    {
      OFFSET -0.000 32.715 0.000
      CHANNELS 6 Xposition Yposition Zposition Zrotation Xrotation Yrotation
      JOINT Head
      {
        OFFSET -0.000 22.442 -0.000
        CHANNELS 6 Xposition Yposition Zposition Zrotation Xrotation Yrotation
        End Site
        {
          OFFSET -0.000 0.090 -0.000
        }
      }
    }
  }
}
MOTION
Frames:	5
Frame Time:	0.0333333
-24.9195 28.9468 -311.641 1.86511 1.77562 -3.33578 7.77948 -7.72284 2.16167 2.9645 -5.93677 -1.74567 2.98023e-06 -53.1037 7.15256e-05 -2.24333 12.4562 0.484106 5.96046e-06 -45.2287 -2.38419e-05 7.40595 -15.1096 6.85408 -7.9406 -7.71916 1.59571 -4.97767 -3.84607 -2.3983 1.19209e-05 -53.5049 -4.76837e-05 -0.808823 11.8056 0.16549 -5.96046e-06 -45.692 0 3.67401 -9.59912 2.24148 2.98023e-06 5.96465 -5.96466 -0.905299 -4.79432 1.56754 -5.96046e-06 32.7153 4.76837e-05 -15.7406 1.23797e-05 -4.38202 18.3126 1.19209e-05 -2.38419e-05 -9.39545 -18.1675 -11.8808 20.522 0 -7.15256e-05 1.58292e-05 -1.70755e-06 -56.1031 23.1938 0 2.38419e-05 4.54933 0.0899038 -3.6847 0.0062 0.0497 0.0339 0 0 0 0 0.0215 0 0 0 0 0 0.022 0 0 0 0 0 0.017 0 0 0 0 -0.0068 0.0873 0.0207 0 0 0 0 0.0267 0 0 0 0 0 0.0213 0 0 0 0 0 0.018 0 0 0 0 -0.0067 0.0922 0.0055 0 0 0 0 0.0266 0 0 0 0 0 0.0228 0 0 0 0 0 0.015 0 0 0 0 -0.0067 0.0925 -0.0113 0 0 0 0 0.0247 0 0 0 0 0 0.0221 0 0 0 0 0 0.018 0 0 0 0 -0.0066 0.0935 -0.0272 0 0 0 0 0.0163 0 0 0 0 0 0.0171 0 0 0 0 0 0.018 0 0 0 0 -5.96046e-06 32.7153 4.76837e-05 20.6267 -1.28066e-06 4.20002 -19.1045 5.96046e-06 -4.76837e-05 9.65786 -45.5432 25.9902 -21.874 -4.76837e-05 -1.19209e-05 -9.10385e-06 6.83019e-06 35.6593 -23.1336 2.38419e-05 -1.78814e-05 -2.55286 0.0359572 5.71418 -0.0062 0.0497 0.0339 0 0 0 0 0.0215 0 0 0 0 0 0.022 0 0 0 0 0 0.017 0 0 0 0 0.0068 0.0873 0.0207 0 0 0 0 0.0267 0 0 0 0 0 0.0213 0 0 0 0 0 0.018 0 0 0 0 0.0067 0.0922 0.0055 0 0 0 0 0.0266 0 0 0 0 0 0.0228 0 0 0 0 0 0.015 0 0 0 0 0.0067 0.0925 -0.0113 0 0 0 0 0.0247 0 0 0 0 0 0.0221 0 0 0 0 0 0.018 0 0 0 0 0.0066 0.0935 -0.0272 0 0 0 0 0.0163 0 0 0 0 0 0.0171 0 0 0 0 0 0.018 0 0 0 0 -5.96046e-06 32.7153 4.76837e-05 0.540355 8.06415 -0.0758039 -1.19209e-05 23.3318 4.76837e-05 9.91178e-06 -1.02453e-05 0 
-24.8859 30.287 -311.563 1.93726 0.803171 -3.19135 7.7602 -7.76897 2.10197 4.27773 -4.6839 -1.45129 0 -53.9963 4.76837e-05 -0.379529 11.101 0.0730745 5.96046e-06 -45.6392 -2.38419e-05 6.12094 -15.1689 5.72949 -7.94275 -7.726 1.60449 -6.56516 -2.50723 -2.1053 0 -54.739 2.38419e-05 -1.72911 10.0692 0.302403 -5.96046e-06 -45.5901 0 3.0323 -9.28754 1.86889 0 5.95317 -5.9531 -1.00779 -4.52473 1.71376 1.49012e-05 32.7154 -4.76837e-05 -14.7748 1.15259e-05 -4.46606 18.3779 5.96046e-06 -4.76837e-05 -3.09091 -24.999 -16.1113 20.4129 3.57628e-05 -2.38419e-05 7.55397e-06 3.4151e-06 -53.786 24.2662 -2.38419e-05 1.49012e-05 5.41659 0.0230904 -5.08138 0.0062 0.0497 0.0339 0 0 0 0 0.0215 0 0 0 0 0 0.022 0 0 0 0 0 0.017 0 0 0 0 -0.0068 0.0873 0.0207 0 0 0 0 0.0267 0 0 0 0 0 0.0213 0 0 0 0 0 0.018 0 0 0 0 -0.0067 0.0922 0.0055 0 0 0 0 0.0266 0 0 0 0 0 0.0228 0 0 0 0 0 0.015 0 0 0 0 -0.0067 0.0925 -0.0113 0 0 0 0 0.0247 0 0 0 0 0 0.0221 0 0 0 0 0 0.018 0 0 0 0 -0.0066 0.0935 -0.0272 0 0 0 0 0.0163 0 0 0 0 0 0.0171 0 0 0 0 0 0.018 0 0 0 0 1.49012e-05 32.7154 -4.76837e-05 20.3551 -2.13443e-06 4.3153 -19.0186 -5.96046e-06 -2.38419e-05 -0.508207 -48.8611 27.7646 -23.1279 4.76837e-05 0 5.15023e-06 1.70755e-06 37.59 -25.9491 -7.15256e-05 5.96046e-06 2.10066 0.1797 4.65227 -0.0062 0.0497 0.0339 0 0 0 0 0.0215 0 0 0 0 0 0.022 0 0 0 0 0 0.017 0 0 0 0 0.0068 0.0873 0.0207 0 0 0 0 0.0267 0 0 0 0 0 0.0213 0 0 0 0 0 0.018 0 0 0 0 0.0067 0.0922 0.0055 0 0 0 0 0.0266 0 0 0 0 0 0.0228 0 0 0 0 0 0.015 0 0 0 0 0.0067 0.0925 -0.0113 0 0 0 0 0.0247 0 0 0 0 0 0.0221 0 0 0 0 0 0.018 0 0 0 0 0.0066 0.0935 -0.0272 0 0 0 0 0.0163 0 0 0 0 0 0.0171 0 0 0 0 0 0.018 0 0 0 0 1.49012e-05 32.7154 -4.76837e-05 0.119186 8.98067 -0.0186044 -5.96046e-06 23.1996 0 9.8184e-06 -9.39151e-06 -4.26887e-07 
-24.8563 31.6459 -311.46 2.02527 0.0772304 -3.043 7.74384 -7.81513 2.06954 5.78028 -3.71241 -1.11475 1.49012e-05 -54.9548 -4.76837e-05 2.95117 9.1903 -0.47175 2.98023e-06 -46.5937 -2.38419e-05 5.36896 -13.444 4.8292 -7.95433 -7.7474 1.6582 -8.47843 -1.66283 -1.75638 5.96046e-06 -55.9613 -2.38419e-05 -4.04178 8.60989 0.60606 5.96046e-06 -46.2429 0 3.60548 -12.845 2.52855 -8.9407e-06 5.97442 -5.97448 -1.21273 -3.92571 1.83865 2.98023e-06 32.7153 4.76837e-05 -14.0809 1.08856e-05 -3.57668 18.4275 -5.96046e-06 0 5.07329 -33.8817 -24.5884 21.626 -4.76837e-05 1.19209e-05 1.59638e-05 1.19528e-05 -48.2644 27.2435 0 5.96046e-06 2.90641 0.0124685 -5.83951 0.0062 0.0497 0.0339 0 0 0 0 0.0215 0 0 0 0 0 0.022 0 0 0 0 0 0.017 0 0 0 0 -0.0068 0.0873 0.0207 0 0 0 0 0.0267 0 0 0 0 0 0.0213 0 0 0 0 0 0.018 0 0 0 0 -0.0067 0.0922 0.0055 0 0 0 0 0.0266 0 0 0 0 0 0.0228 0 0 0 0 0 0.015 0 0 0 0 -0.0067 0.0925 -0.0113 0 0 0 0 0.0247 0 0 0 0 0 0.0221 0 0 0 0 0 0.018 0 0 0 0 -0.0066 0.0935 -0.0272 0 0 0 0 0.0163 0 0 0 0 0 0.0171 0 0 0 0 0 0.018 0 0 0 0 2.98023e-06 32.7153 4.76837e-05 20.3209 -1.70755e-06 3.46174 -19.0386 -1.19209e-05 2.38419e-05 -5.34926 -55.0341 33.0951 -24.8316 4.76837e-05 3.57628e-05 9.4143e-06 1.53679e-05 39.8542 -29.9983 7.15256e-05 1.19209e-05 5.2923 0.190706 2.55983 -0.0062 0.0497 0.0339 0 0 0 0 0.0215 0 0 0 0 0 0.022 0 0 0 0 0 0.017 0 0 0 0 0.0068 0.0873 0.0207 0 0 0 0 0.0267 0 0 0 0 0 0.0213 0 0 0 0 0 0.018 0 0 0 0 0.0067 0.0922 0.0055 0 0 0 0 0.0266 0 0 0 0 0 0.0228 0 0 0 0 0 0.015 0 0 0 0 0.0067 0.0925 -0.0113 0 0 0 0 0.0247 0 0 0 0 0 0.0221 0 0 0 0 0 0.018 0 0 0 0 0.0066 0.0935 -0.0272 0 0 0 0 0.0163 0 0 0 0 0 0.0171 0 0 0 0 0 0.018 0 0 0 0 2.98023e-06 32.7153 4.76837e-05 -0.583214 8.50008 0.0862088 -5.96046e-06 22.9515 0 9.96514e-06 -9.39151e-06 -1.06722e-07 
-24.9109 32.0002 -311.241 1.85543 -0.492022 -2.38938 7.77945 -7.96055 2.05078 8.80216 -3.13505 -1.36353 8.9407e-06 -55.8388 4.76837e-05 4.28678 8.40265 -0.62757 -5.96046e-06 -47.5319 -4.76837e-05 3.98192 -11.5575 3.51272 -8.00264 -7.90511 1.54393 -10.7927 -1.77827 -2.20249 -1.19209e-05 -56.4637 4.76837e-05 -5.9254 10.406 1.07397 0 -47.2384 -2.38419e-05 3.53553 -13.3841 2.5865 2.98023e-06 5.9188 -5.91879 -1.16099 -2.90193 1.65612 0 32.7153 4.76837e-05 -13.2767 1.17394e-05 -2.16101 18.5867 -5.96046e-06 4.76837e-05 8.82924 -45.4966 -34.2689 23.68 4.76837e-05 0 -1.5146e-05 -8.53774e-06 -43.4547 29.4504 2.38419e-05 -5.96046e-06 -1.16414 0.105635 -4.18519 0.0062 0.0497 0.0339 0 0 0 0 0.0215 0 0 0 0 0 0.022 0 0 0 0 0 0.017 0 0 0 0 -0.0068 0.0873 0.0207 0 0 0 0 0.0267 0 0 0 0 0 0.0213 0 0 0 0 0 0.018 0 0 0 0 -0.0067 0.0922 0.0055 0 0 0 0 0.0266 0 0 0 0 0 0.0228 0 0 0 0 0 0.015 0 0 0 0 -0.0067 0.0925 -0.0113 0 0 0 0 0.0247 0 0 0 0 0 0.0221 0 0 0 0 0 0.018 0 0 0 0 -0.0066 0.0935 -0.0272 0 0 0 0 0.0163 0 0 0 0 0 0.0171 0 0 0 0 0 0.018 0 0 0 0 0 32.7153 4.76837e-05 19.0301 -6.4033e-07 2.11524 -18.9886 1.78814e-05 -2.38419e-05 -6.89604 -62.2036 42.4779 -25.7809 7.15256e-05 5.96046e-06 1.71813e-06 3.41509e-06 36.5863 -31.0157 -7.15256e-05 -5.96046e-06 4.62144 0.215727 5.9434 -0.0062 0.0497 0.0339 0 0 0 0 0.0215 0 0 0 0 0 0.022 0 0 0 0 0 0.017 0 0 0 0 0.0068 0.0873 0.0207 0 0 0 0 0.0267 0 0 0 0 0 0.0213 0 0 0 0 0 0.018 0 0 0 0 0.0067 0.0922 0.0055 0 0 0 0 0.0266 0 0 0 0 0 0.0228 0 0 0 0 0 0.015 0 0 0 0 0.0067 0.0925 -0.0113 0 0 0 0 0.0247 0 0 0 0 0 0.0221 0 0 0 0 0 0.018 0 0 0 0 0.0066 0.0935 -0.0272 0 0 0 0 0.0163 0 0 0 0 0 0.0171 0 0 0 0 0 0.018 0 0 0 0 0 32.7153 4.76837e-05 -2.25207 7.52791 0.295191 -1.19209e-05 22.1732 2.38419e-05 9.82173e-06 -1.19528e-05 5.33609e-08 
-24.9109 32.0002 -311.241 1.85543 -0.492022 -2.38938 7.77945 -7.96055 2.05078 8.80216 -3.13505 -1.36353 8.9407e-06 -55.8388 4.76837e-05 4.28678 8.40265 -0.62757 -5.96046e-06 -47.5319 -4.76837e-05 3.98192 -11.5575 3.51272 -8.00264 -7.90511 1.54393 -10.7927 -1.77827 -2.20249 -1.19209e-05 -56.4637 4.76837e-05 -5.9254 10.406 1.07397 0 -47.2384 -2.38419e-05 3.53553 -13.3841 2.5865 2.98023e-06 5.9188 -5.91879 -1.16099 -2.90193 1.65612 0 32.7153 4.76837e-05 -13.2767 1.17394e-05 -2.16101 18.5867 -5.96046e-06 4.76837e-05 8.82924 -45.4966 -34.2689 23.68 4.76837e-05 0 -1.5146e-05 -8.53774e-06 -43.4547 29.4504 2.38419e-05 -5.96046e-06 -1.16414 0.105635 -4.18519 0.0062 0.0497 0.0339 0 0 0 0 0.0215 0 0 0 0 0 0.022 0 0 0 0 0 0.017 0 0 0 0 -0.0068 0.0873 0.0207 0 0 0 0 0.0267 0 0 0 0 0 0.0213 0 0 0 0 0 0.018 0 0 0 0 -0.0067 0.0922 0.0055 0 0 0 0 0.0266 0 0 0 0 0 0.0228 0 0 0 0 0 0.015 0 0 0 0 -0.0067 0.0925 -0.0113 0 0 0 0 0.0247 0 0 0 0 0 0.0221 0 0 0 0 0 0.018 0 0 0 0 -0.0066 0.0935 -0.0272 0 0 0 0 0.0163 0 0 0 0 0 0.0171 0 0 0 0 0 0.018 0 0 0 0 0 32.7153 4.76837e-05 19.0301 -6.4033e-07 2.11524 -18.9886 1.78814e-05 -2.38419e-05 -6.89604 -62.2036 42.4779 -25.7809 7.15256e-05 5.96046e-06 1.71813e-06 3.41509e-06 36.5863 -31.0157 -7.15256e-05 -5.96046e-06 4.62144 0.215727 5.9434 -0.0062 0.0497 0.0339 0 0 0 0 0.0215 0 0 0 0 0 0.022 0 0 0 0 0 0.017 0 0 0 0 0.0068 0.0873 0.0207 0 0 0 0 0.0267 0 0 0 0 0 0.0213 0 0 0 0 0 0.018 0 0 0 0 0.0067 0.0922 0.0055 0 0 0 0 0.0266 0 0 0 0 0 0.0228 0 0 0 0 0 0.015 0 0 0 0 0.0067 0.0925 -0.0113 0 0 0 0 0.0247 0 0 0 0 0 0.0221 0 0 0 0 0 0.018 0 0 0 0 0.0066 0.0935 -0.0272 0 0 0 0 0.0163 0 0 0 0 0 0.0171 0 0 0 0 0 0.018 0 0 0 0 0 32.7153 4.76837e-05 -2.25207 7.52791 0.295191 -1.19209e-05 22.1732 2.38419e-05 9.82173e-06 -1.19528e-05 5.33609e-08 
